<mxfile host="drawio-plugin" modified="2022-08-21T08:31:29.490Z" agent="5.0 (Windows NT 6.2; Win64; x64) AppleWebKit/537.36 (KHTML, like Gecko) Chrome/98.0.4758.102 Safari/537.36" etag="6jx28XBZJryADf5tyWC7" version="15.5.4" type="embed"><diagram id="C5RBs43oDa-KdzZeNtuy" name="Page-1"><mxGraphModel dx="-3072" dy="223" grid="1" gridSize="10" guides="1" tooltips="1" connect="1" arrows="1" fold="1" page="1" pageScale="1" pageWidth="3300" pageHeight="2339" background="none" math="0" shadow="0"><root><mxCell id="WIyWlLk6GJQsqaUBKTNV-0"/><mxCell id="WIyWlLk6GJQsqaUBKTNV-1" parent="WIyWlLk6GJQsqaUBKTNV-0"/><mxCell id="zkfFHV4jXpPFQw0GAbJ--17" value="Game" style="swimlane;fontStyle=0;align=center;verticalAlign=top;childLayout=stackLayout;horizontal=1;startSize=26;horizontalStack=0;resizeParent=1;resizeLast=0;collapsible=1;marginBottom=0;rounded=0;shadow=0;strokeWidth=1;" parent="WIyWlLk6GJQsqaUBKTNV-1" vertex="1"><mxGeometry x="6360" y="996" width="160" height="216" as="geometry"><mxRectangle x="560" y="160" width="160" height="26" as="alternateBounds"/></mxGeometry></mxCell><mxCell id="zkfFHV4jXpPFQw0GAbJ--18" value="Лаборатории(игроки)" style="text;align=center;verticalAlign=top;spacingLeft=4;spacingRight=4;overflow=hidden;rotatable=0;points=[[0,0.5],[1,0.5]];portConstraint=eastwest;" parent="zkfFHV4jXpPFQw0GAbJ--17" vertex="1"><mxGeometry y="26" width="160" height="26" as="geometry"/></mxCell><mxCell id="U8ynD6HXEm-DrtowHlpf-6" value="События" style="text;align=center;verticalAlign=top;spacingLeft=4;spacingRight=4;overflow=hidden;rotatable=0;points=[[0,0.5],[1,0.5]];portConstraint=eastwest;rounded=0;shadow=0;html=0;" parent="zkfFHV4jXpPFQw0GAbJ--17" vertex="1"><mxGeometry y="52" width="160" height="26" as="geometry"/></mxCell><mxCell id="zkfFHV4jXpPFQw0GAbJ--20" value="Помещения(огр.кол-во)" style="text;align=center;verticalAlign=top;spacingLeft=4;spacingRight=4;overflow=hidden;rotatable=0;points=[[0,0.5],[1,0.5]];portConstraint=eastwest;rounded=0;shadow=0;html=0;" parent="zkfFHV4jXpPFQw0GAbJ--17" vertex="1"><mxGeometry y="78" width="160" height="26" as="geometry"/></mxCell><mxCell id="zkfFHV4jXpPFQw0GAbJ--22" value="Сервисы(огр кол-во)&#10;" style="text;align=center;verticalAlign=top;spacingLeft=4;spacingRight=4;overflow=hidden;rotatable=0;points=[[0,0.5],[1,0.5]];portConstraint=eastwest;rounded=0;shadow=0;html=0;" parent="zkfFHV4jXpPFQw0GAbJ--17" vertex="1"><mxGeometry y="104" width="160" height="26" as="geometry"/></mxCell><mxCell id="zkfFHV4jXpPFQw0GAbJ--21" value="Оборудование(огр кол-во)" style="text;align=center;verticalAlign=top;spacingLeft=4;spacingRight=4;overflow=hidden;rotatable=0;points=[[0,0.5],[1,0.5]];portConstraint=eastwest;rounded=0;shadow=0;html=0;" parent="zkfFHV4jXpPFQw0GAbJ--17" vertex="1"><mxGeometry y="130" width="160" height="26" as="geometry"/></mxCell><mxCell id="U8ynD6HXEm-DrtowHlpf-4" value="Пероснал(огр кол-во)" style="text;align=center;verticalAlign=top;spacingLeft=4;spacingRight=4;overflow=hidden;rotatable=0;points=[[0,0.5],[1,0.5]];portConstraint=eastwest;rounded=0;shadow=0;html=0;" parent="zkfFHV4jXpPFQw0GAbJ--17" vertex="1"><mxGeometry y="156" width="160" height="26" as="geometry"/></mxCell><mxCell id="0" value="Дней прошло" style="text;strokeColor=none;fillColor=none;align=center;verticalAlign=middle;spacingLeft=4;spacingRight=4;overflow=hidden;points=[[0,0.5],[1,0.5]];portConstraint=eastwest;rotatable=0;" vertex="1" parent="zkfFHV4jXpPFQw0GAbJ--17"><mxGeometry y="182" width="160" height="30" as="geometry"/></mxCell><mxCell id="U8ynD6HXEm-DrtowHlpf-7" value="Лаборатория" style="swimlane;fontStyle=0;childLayout=stackLayout;horizontal=1;startSize=30;horizontalStack=0;resizeParent=1;resizeParentMax=0;resizeLast=0;collapsible=1;marginBottom=0;align=center;" parent="WIyWlLk6GJQsqaUBKTNV-1" vertex="1"><mxGeometry x="6039.96" y="680" width="140" height="270" as="geometry"/></mxCell><mxCell id="U8ynD6HXEm-DrtowHlpf-18" value="Деньги" style="text;strokeColor=none;fillColor=none;align=center;verticalAlign=middle;spacingLeft=4;spacingRight=4;overflow=hidden;points=[[0,0.5],[1,0.5]];portConstraint=eastwest;rotatable=0;" parent="U8ynD6HXEm-DrtowHlpf-7" vertex="1"><mxGeometry y="30" width="140" height="30" as="geometry"/></mxCell><mxCell id="U8ynD6HXEm-DrtowHlpf-17" value="Помещения" style="text;strokeColor=none;fillColor=none;align=center;verticalAlign=middle;spacingLeft=4;spacingRight=4;overflow=hidden;points=[[0,0.5],[1,0.5]];portConstraint=eastwest;rotatable=0;" parent="U8ynD6HXEm-DrtowHlpf-7" vertex="1"><mxGeometry y="60" width="140" height="30" as="geometry"/></mxCell><mxCell id="U8ynD6HXEm-DrtowHlpf-12" value="Репутация(Итоговая)" style="text;strokeColor=none;fillColor=none;align=center;verticalAlign=middle;spacingLeft=4;spacingRight=4;overflow=hidden;points=[[0,0.5],[1,0.5]];portConstraint=eastwest;rotatable=0;" parent="U8ynD6HXEm-DrtowHlpf-7" vertex="1"><mxGeometry y="90" width="140" height="30" as="geometry"/></mxCell><mxCell id="cIuGYjMXnb325uZlWKxq-1" style="edgeStyle=orthogonalEdgeStyle;rounded=0;orthogonalLoop=1;jettySize=auto;html=1;exitX=0;exitY=0.5;exitDx=0;exitDy=0;entryX=0;entryY=0.5;entryDx=0;entryDy=0;align=center;" parent="U8ynD6HXEm-DrtowHlpf-7" source="U8ynD6HXEm-DrtowHlpf-13" target="U8ynD6HXEm-DrtowHlpf-12" edge="1"><mxGeometry relative="1" as="geometry"><Array as="points"><mxPoint x="-30" y="105"/><mxPoint x="-30" y="75"/></Array></mxGeometry></mxCell><mxCell id="U8ynD6HXEm-DrtowHlpf-15" value="Сервисы(общие)" style="text;strokeColor=none;fillColor=none;align=center;verticalAlign=middle;spacingLeft=4;spacingRight=4;overflow=hidden;points=[[0,0.5],[1,0.5]];portConstraint=eastwest;rotatable=0;" parent="U8ynD6HXEm-DrtowHlpf-7" vertex="1"><mxGeometry y="120" width="140" height="30" as="geometry"/></mxCell><mxCell id="U8ynD6HXEm-DrtowHlpf-13" value="Реклама" style="text;strokeColor=none;fillColor=none;align=center;verticalAlign=middle;spacingLeft=4;spacingRight=4;overflow=hidden;points=[[0,0.5],[1,0.5]];portConstraint=eastwest;rotatable=0;" parent="U8ynD6HXEm-DrtowHlpf-7" vertex="1"><mxGeometry y="150" width="140" height="30" as="geometry"/></mxCell><mxCell id="U8ynD6HXEm-DrtowHlpf-16" value="Активные события" style="text;strokeColor=none;fillColor=none;align=center;verticalAlign=middle;spacingLeft=4;spacingRight=4;overflow=hidden;points=[[0,0.5],[1,0.5]];portConstraint=eastwest;rotatable=0;" parent="U8ynD6HXEm-DrtowHlpf-7" vertex="1"><mxGeometry y="180" width="140" height="30" as="geometry"/></mxCell><mxCell id="U8ynD6HXEm-DrtowHlpf-19" value="Заказы" style="text;strokeColor=none;fillColor=none;align=center;verticalAlign=middle;spacingLeft=4;spacingRight=4;overflow=hidden;points=[[0,0.5],[1,0.5]];portConstraint=eastwest;rotatable=0;" parent="U8ynD6HXEm-DrtowHlpf-7" vertex="1"><mxGeometry y="210" width="140" height="30" as="geometry"/></mxCell><mxCell id="cIuGYjMXnb325uZlWKxq-8" value="Кредит" style="text;strokeColor=none;fillColor=none;align=center;verticalAlign=middle;spacingLeft=4;spacingRight=4;overflow=hidden;points=[[0,0.5],[1,0.5]];portConstraint=eastwest;rotatable=0;" parent="U8ynD6HXEm-DrtowHlpf-7" vertex="1"><mxGeometry y="240" width="140" height="30" as="geometry"/></mxCell><mxCell id="U8ynD6HXEm-DrtowHlpf-11" style="edgeStyle=orthogonalEdgeStyle;rounded=0;orthogonalLoop=1;jettySize=auto;html=1;exitX=0;exitY=0.5;exitDx=0;exitDy=0;entryX=1;entryY=0.5;entryDx=0;entryDy=0;align=center;" parent="WIyWlLk6GJQsqaUBKTNV-1" source="zkfFHV4jXpPFQw0GAbJ--18" target="U8ynD6HXEm-DrtowHlpf-17" edge="1"><mxGeometry relative="1" as="geometry"/></mxCell><mxCell id="U8ynD6HXEm-DrtowHlpf-20" value="Помещение" style="swimlane;fontStyle=0;childLayout=stackLayout;horizontal=1;startSize=30;horizontalStack=0;resizeParent=1;resizeParentMax=0;resizeLast=0;collapsible=1;marginBottom=0;align=center;" parent="WIyWlLk6GJQsqaUBKTNV-1" vertex="1"><mxGeometry x="5759.96" y="640" width="230" height="330" as="geometry"/></mxCell><mxCell id="U8ynD6HXEm-DrtowHlpf-21" value="Оборудование/отсутствие" style="text;strokeColor=none;fillColor=none;align=center;verticalAlign=middle;spacingLeft=4;spacingRight=4;overflow=hidden;points=[[0,0.5],[1,0.5]];portConstraint=eastwest;rotatable=0;" parent="U8ynD6HXEm-DrtowHlpf-20" vertex="1"><mxGeometry y="30" width="230" height="30" as="geometry"/></mxCell><mxCell id="U8ynD6HXEm-DrtowHlpf-22" value="Реальный персонал(врачи/медбратья)" style="text;strokeColor=none;fillColor=none;align=center;verticalAlign=middle;spacingLeft=4;spacingRight=4;overflow=hidden;points=[[0,0.5],[1,0.5]];portConstraint=eastwest;rotatable=0;" parent="U8ynD6HXEm-DrtowHlpf-20" vertex="1"><mxGeometry y="60" width="230" height="30" as="geometry"/></mxCell><mxCell id="U8ynD6HXEm-DrtowHlpf-26" value="Репутация(итоговая)" style="text;strokeColor=none;fillColor=none;align=center;verticalAlign=middle;spacingLeft=4;spacingRight=4;overflow=hidden;points=[[0,0.5],[1,0.5]];portConstraint=eastwest;rotatable=0;" parent="U8ynD6HXEm-DrtowHlpf-20" vertex="1"><mxGeometry y="90" width="230" height="30" as="geometry"/></mxCell><mxCell id="U8ynD6HXEm-DrtowHlpf-25" value="Расходы(Итоговые)" style="text;strokeColor=none;fillColor=none;align=center;verticalAlign=middle;spacingLeft=4;spacingRight=4;overflow=hidden;points=[[0,0.5],[1,0.5]];portConstraint=eastwest;rotatable=0;" parent="U8ynD6HXEm-DrtowHlpf-20" vertex="1"><mxGeometry y="120" width="230" height="30" as="geometry"/></mxCell><mxCell id="U8ynD6HXEm-DrtowHlpf-43" value="Возможна ли работа" style="text;strokeColor=none;fillColor=none;align=center;verticalAlign=middle;spacingLeft=4;spacingRight=4;overflow=hidden;points=[[0,0.5],[1,0.5]];portConstraint=eastwest;rotatable=0;" parent="U8ynD6HXEm-DrtowHlpf-20" vertex="1"><mxGeometry y="150" width="230" height="30" as="geometry"/></mxCell><mxCell id="U8ynD6HXEm-DrtowHlpf-48" value="Фактические заказы" style="text;strokeColor=none;fillColor=none;align=center;verticalAlign=middle;spacingLeft=4;spacingRight=4;overflow=hidden;points=[[0,0.5],[1,0.5]];portConstraint=eastwest;rotatable=0;" parent="U8ynD6HXEm-DrtowHlpf-20" vertex="1"><mxGeometry y="180" width="230" height="30" as="geometry"/></mxCell><mxCell id="U8ynD6HXEm-DrtowHlpf-66" style="edgeStyle=orthogonalEdgeStyle;rounded=0;orthogonalLoop=1;jettySize=auto;html=1;entryX=0;entryY=0.5;entryDx=0;entryDy=0;align=center;" parent="U8ynD6HXEm-DrtowHlpf-20" source="U8ynD6HXEm-DrtowHlpf-65" target="U8ynD6HXEm-DrtowHlpf-26" edge="1"><mxGeometry relative="1" as="geometry"/></mxCell><mxCell id="U8ynD6HXEm-DrtowHlpf-57" style="edgeStyle=orthogonalEdgeStyle;rounded=0;orthogonalLoop=1;jettySize=auto;html=1;exitX=0;exitY=0.5;exitDx=0;exitDy=0;entryX=0;entryY=0.5;entryDx=0;entryDy=0;align=center;" parent="U8ynD6HXEm-DrtowHlpf-20" source="U8ynD6HXEm-DrtowHlpf-22" target="U8ynD6HXEm-DrtowHlpf-25" edge="1"><mxGeometry relative="1" as="geometry"><mxPoint y="170" as="targetPoint"/><Array as="points"><mxPoint x="-30" y="105"/><mxPoint x="-30" y="165"/></Array></mxGeometry></mxCell><mxCell id="U8ynD6HXEm-DrtowHlpf-69" style="edgeStyle=orthogonalEdgeStyle;rounded=0;orthogonalLoop=1;jettySize=auto;html=1;entryX=0;entryY=0.5;entryDx=0;entryDy=0;align=center;" parent="U8ynD6HXEm-DrtowHlpf-20" source="U8ynD6HXEm-DrtowHlpf-68" target="U8ynD6HXEm-DrtowHlpf-25" edge="1"><mxGeometry relative="1" as="geometry"><Array as="points"><mxPoint x="115" y="380"/><mxPoint x="-50" y="380"/><mxPoint x="-50" y="135"/></Array></mxGeometry></mxCell><mxCell id="U8ynD6HXEm-DrtowHlpf-23" value="Цена" style="text;strokeColor=none;fillColor=none;align=center;verticalAlign=middle;spacingLeft=4;spacingRight=4;overflow=hidden;points=[[0,0.5],[1,0.5]];portConstraint=eastwest;rotatable=0;" parent="U8ynD6HXEm-DrtowHlpf-20" vertex="1"><mxGeometry y="210" width="230" height="30" as="geometry"/></mxCell><mxCell id="U8ynD6HXEm-DrtowHlpf-32" value="Макс персонал(врачи/медбратья)" style="text;strokeColor=none;fillColor=none;align=center;verticalAlign=middle;spacingLeft=4;spacingRight=4;overflow=hidden;points=[[0,0.5],[1,0.5]];portConstraint=eastwest;rotatable=0;" parent="U8ynD6HXEm-DrtowHlpf-20" vertex="1"><mxGeometry y="240" width="230" height="30" as="geometry"/></mxCell><mxCell id="U8ynD6HXEm-DrtowHlpf-65" value="Репутация(базовая)" style="text;strokeColor=none;fillColor=none;align=center;verticalAlign=middle;spacingLeft=4;spacingRight=4;overflow=hidden;points=[[0,0.5],[1,0.5]];portConstraint=eastwest;rotatable=0;" parent="U8ynD6HXEm-DrtowHlpf-20" vertex="1"><mxGeometry y="270" width="230" height="30" as="geometry"/></mxCell><mxCell id="U8ynD6HXEm-DrtowHlpf-68" value="Расходы(Базовые)" style="text;strokeColor=none;fillColor=none;align=center;verticalAlign=middle;spacingLeft=4;spacingRight=4;overflow=hidden;points=[[0,0.5],[1,0.5]];portConstraint=eastwest;rotatable=0;" parent="U8ynD6HXEm-DrtowHlpf-20" vertex="1"><mxGeometry y="300" width="230" height="30" as="geometry"/></mxCell><mxCell id="U8ynD6HXEm-DrtowHlpf-24" style="edgeStyle=orthogonalEdgeStyle;rounded=0;orthogonalLoop=1;jettySize=auto;html=1;exitX=0;exitY=0.5;exitDx=0;exitDy=0;entryX=1;entryY=0.25;entryDx=0;entryDy=0;align=center;" parent="WIyWlLk6GJQsqaUBKTNV-1" source="U8ynD6HXEm-DrtowHlpf-17" target="U8ynD6HXEm-DrtowHlpf-20" edge="1"><mxGeometry relative="1" as="geometry"/></mxCell><mxCell id="U8ynD6HXEm-DrtowHlpf-33" value="Оборудование" style="swimlane;fontStyle=0;childLayout=stackLayout;horizontal=1;startSize=30;horizontalStack=0;resizeParent=1;resizeParentMax=0;resizeLast=0;collapsible=1;marginBottom=0;align=center;" parent="WIyWlLk6GJQsqaUBKTNV-1" vertex="1"><mxGeometry x="5459.96" y="290" width="250" height="420" as="geometry"/></mxCell><mxCell id="U8ynD6HXEm-DrtowHlpf-34" value="Имя" style="text;strokeColor=none;fillColor=none;align=center;verticalAlign=middle;spacingLeft=4;spacingRight=4;overflow=hidden;points=[[0,0.5],[1,0.5]];portConstraint=eastwest;rotatable=0;" parent="U8ynD6HXEm-DrtowHlpf-33" vertex="1"><mxGeometry y="30" width="250" height="30" as="geometry"/></mxCell><mxCell id="U8ynD6HXEm-DrtowHlpf-35" value="Цена" style="text;strokeColor=none;fillColor=none;align=center;verticalAlign=middle;spacingLeft=4;spacingRight=4;overflow=hidden;points=[[0,0.5],[1,0.5]];portConstraint=eastwest;rotatable=0;" parent="U8ynD6HXEm-DrtowHlpf-33" vertex="1"><mxGeometry y="60" width="250" height="30" as="geometry"/></mxCell><mxCell id="U8ynD6HXEm-DrtowHlpf-54" value="Сервисы" style="text;strokeColor=none;fillColor=none;align=center;verticalAlign=middle;spacingLeft=4;spacingRight=4;overflow=hidden;points=[[0,0.5],[1,0.5]];portConstraint=eastwest;rotatable=0;" parent="U8ynD6HXEm-DrtowHlpf-33" vertex="1"><mxGeometry y="90" width="250" height="30" as="geometry"/></mxCell><mxCell id="U8ynD6HXEm-DrtowHlpf-50" value="Этап(один из 3) и/или цвет" style="text;strokeColor=none;fillColor=none;align=center;verticalAlign=middle;spacingLeft=4;spacingRight=4;overflow=hidden;points=[[0,0.5],[1,0.5]];portConstraint=eastwest;rotatable=0;" parent="U8ynD6HXEm-DrtowHlpf-33" vertex="1"><mxGeometry y="120" width="250" height="30" as="geometry"/></mxCell><mxCell id="U8ynD6HXEm-DrtowHlpf-36" value="Расходы" style="text;strokeColor=none;fillColor=none;align=center;verticalAlign=middle;spacingLeft=4;spacingRight=4;overflow=hidden;points=[[0,0.5],[1,0.5]];portConstraint=eastwest;rotatable=0;" parent="U8ynD6HXEm-DrtowHlpf-33" vertex="1"><mxGeometry y="150" width="250" height="30" as="geometry"/></mxCell><mxCell id="U8ynD6HXEm-DrtowHlpf-45" value="Мощность" style="text;strokeColor=none;fillColor=none;align=center;verticalAlign=middle;spacingLeft=4;spacingRight=4;overflow=hidden;points=[[0,0.5],[1,0.5]];portConstraint=eastwest;rotatable=0;" parent="U8ynD6HXEm-DrtowHlpf-33" vertex="1"><mxGeometry y="180" width="250" height="30" as="geometry"/></mxCell><mxCell id="U8ynD6HXEm-DrtowHlpf-37" value="Репутация" style="text;strokeColor=none;fillColor=none;align=center;verticalAlign=middle;spacingLeft=4;spacingRight=4;overflow=hidden;points=[[0,0.5],[1,0.5]];portConstraint=eastwest;rotatable=0;" parent="U8ynD6HXEm-DrtowHlpf-33" vertex="1"><mxGeometry y="210" width="250" height="30" as="geometry"/></mxCell><mxCell id="U8ynD6HXEm-DrtowHlpf-38" value="Стоимость ремонта" style="text;strokeColor=none;fillColor=none;align=center;verticalAlign=middle;spacingLeft=4;spacingRight=4;overflow=hidden;points=[[0,0.5],[1,0.5]];portConstraint=eastwest;rotatable=0;" parent="U8ynD6HXEm-DrtowHlpf-33" vertex="1"><mxGeometry y="240" width="250" height="30" as="geometry"/></mxCell><mxCell id="U8ynD6HXEm-DrtowHlpf-39" value="Стоимость реагентов" style="text;strokeColor=none;fillColor=none;align=center;verticalAlign=middle;spacingLeft=4;spacingRight=4;overflow=hidden;points=[[0,0.5],[1,0.5]];portConstraint=eastwest;rotatable=0;" parent="U8ynD6HXEm-DrtowHlpf-33" vertex="1"><mxGeometry y="270" width="250" height="30" as="geometry"/></mxCell><mxCell id="U8ynD6HXEm-DrtowHlpf-40" value="Необходимый персонал(врачи/медбратья)" style="text;strokeColor=none;fillColor=none;align=center;verticalAlign=middle;spacingLeft=4;spacingRight=4;overflow=hidden;points=[[0,0.5],[1,0.5]];portConstraint=eastwest;rotatable=0;" parent="U8ynD6HXEm-DrtowHlpf-33" vertex="1"><mxGeometry y="300" width="250" height="30" as="geometry"/></mxCell><mxCell id="U8ynD6HXEm-DrtowHlpf-44" value="Возможность работы" style="text;strokeColor=none;fillColor=none;align=center;verticalAlign=middle;spacingLeft=4;spacingRight=4;overflow=hidden;points=[[0,0.5],[1,0.5]];portConstraint=eastwest;rotatable=0;" parent="U8ynD6HXEm-DrtowHlpf-33" vertex="1"><mxGeometry y="330" width="250" height="30" as="geometry"/></mxCell><mxCell id="U8ynD6HXEm-DrtowHlpf-61" style="edgeStyle=orthogonalEdgeStyle;rounded=0;orthogonalLoop=1;jettySize=auto;html=1;exitX=0;exitY=0.5;exitDx=0;exitDy=0;entryX=0;entryY=0.5;entryDx=0;entryDy=0;align=center;" parent="U8ynD6HXEm-DrtowHlpf-33" source="U8ynD6HXEm-DrtowHlpf-60" target="U8ynD6HXEm-DrtowHlpf-44" edge="1"><mxGeometry relative="1" as="geometry"><Array as="points"><mxPoint x="-10" y="375"/><mxPoint x="-10" y="345"/></Array></mxGeometry></mxCell><mxCell id="U8ynD6HXEm-DrtowHlpf-60" value="Поломаность" style="text;strokeColor=none;fillColor=none;align=center;verticalAlign=middle;spacingLeft=4;spacingRight=4;overflow=hidden;points=[[0,0.5],[1,0.5]];portConstraint=eastwest;rotatable=0;" parent="U8ynD6HXEm-DrtowHlpf-33" vertex="1"><mxGeometry y="360" width="250" height="30" as="geometry"/></mxCell><mxCell id="U8ynD6HXEm-DrtowHlpf-46" value="Не в залоге и/или у кого" style="text;strokeColor=none;fillColor=none;align=center;verticalAlign=middle;spacingLeft=4;spacingRight=4;overflow=hidden;points=[[0,0.5],[1,0.5]];portConstraint=eastwest;rotatable=0;" parent="U8ynD6HXEm-DrtowHlpf-33" vertex="1"><mxGeometry y="390" width="250" height="30" as="geometry"/></mxCell><mxCell id="U8ynD6HXEm-DrtowHlpf-41" style="edgeStyle=orthogonalEdgeStyle;rounded=0;orthogonalLoop=1;jettySize=auto;html=1;entryX=1;entryY=0.25;entryDx=0;entryDy=0;align=center;" parent="WIyWlLk6GJQsqaUBKTNV-1" target="U8ynD6HXEm-DrtowHlpf-33" edge="1"><mxGeometry relative="1" as="geometry"><mxPoint x="5759.96" y="690" as="sourcePoint"/><mxPoint x="5679.96" y="640" as="targetPoint"/><Array as="points"><mxPoint x="5749.96" y="690"/><mxPoint x="5749.96" y="467"/></Array></mxGeometry></mxCell><mxCell id="U8ynD6HXEm-DrtowHlpf-55" style="edgeStyle=orthogonalEdgeStyle;rounded=0;orthogonalLoop=1;jettySize=auto;html=1;exitX=0;exitY=0.5;exitDx=0;exitDy=0;entryX=0;entryY=0.5;entryDx=0;entryDy=0;align=center;" parent="WIyWlLk6GJQsqaUBKTNV-1" source="U8ynD6HXEm-DrtowHlpf-39" target="U8ynD6HXEm-DrtowHlpf-25" edge="1"><mxGeometry relative="1" as="geometry"/></mxCell><mxCell id="U8ynD6HXEm-DrtowHlpf-56" style="edgeStyle=orthogonalEdgeStyle;rounded=0;orthogonalLoop=1;jettySize=auto;html=1;exitX=0;exitY=0.5;exitDx=0;exitDy=0;entryX=0;entryY=0.5;entryDx=0;entryDy=0;align=center;" parent="WIyWlLk6GJQsqaUBKTNV-1" source="U8ynD6HXEm-DrtowHlpf-38" target="U8ynD6HXEm-DrtowHlpf-25" edge="1"><mxGeometry relative="1" as="geometry"><Array as="points"><mxPoint x="5409.96" y="625"/><mxPoint x="5409.96" y="800"/><mxPoint x="5719.96" y="800"/><mxPoint x="5719.96" y="775"/></Array></mxGeometry></mxCell><mxCell id="U8ynD6HXEm-DrtowHlpf-59" style="edgeStyle=orthogonalEdgeStyle;rounded=0;orthogonalLoop=1;jettySize=auto;html=1;exitX=0;exitY=0.5;exitDx=0;exitDy=0;entryX=1;entryY=0.5;entryDx=0;entryDy=0;align=center;" parent="WIyWlLk6GJQsqaUBKTNV-1" source="U8ynD6HXEm-DrtowHlpf-19" target="U8ynD6HXEm-DrtowHlpf-48" edge="1"><mxGeometry relative="1" as="geometry"/></mxCell><mxCell id="U8ynD6HXEm-DrtowHlpf-62" style="edgeStyle=orthogonalEdgeStyle;rounded=0;orthogonalLoop=1;jettySize=auto;html=1;exitX=0;exitY=0.5;exitDx=0;exitDy=0;align=center;" parent="WIyWlLk6GJQsqaUBKTNV-1" source="U8ynD6HXEm-DrtowHlpf-44" edge="1"><mxGeometry relative="1" as="geometry"><mxPoint x="5629.96" y="895" as="sourcePoint"/><mxPoint x="5759.96" y="810" as="targetPoint"/><Array as="points"><mxPoint x="5449.96" y="635"/><mxPoint x="5449.96" y="715"/><mxPoint x="5389.96" y="715"/><mxPoint x="5389.96" y="810"/></Array></mxGeometry></mxCell><mxCell id="U8ynD6HXEm-DrtowHlpf-64" style="edgeStyle=orthogonalEdgeStyle;rounded=0;orthogonalLoop=1;jettySize=auto;html=1;entryX=0;entryY=-0.333;entryDx=0;entryDy=0;entryPerimeter=0;align=center;" parent="WIyWlLk6GJQsqaUBKTNV-1" source="U8ynD6HXEm-DrtowHlpf-26" target="U8ynD6HXEm-DrtowHlpf-13" edge="1"><mxGeometry relative="1" as="geometry"><Array as="points"><mxPoint x="6014.96" y="745"/><mxPoint x="6014.96" y="760"/></Array></mxGeometry></mxCell><mxCell id="cIuGYjMXnb325uZlWKxq-2" value="Сервис" style="swimlane;fontStyle=0;childLayout=stackLayout;horizontal=1;startSize=30;horizontalStack=0;resizeParent=1;resizeParentMax=0;resizeLast=0;collapsible=1;marginBottom=0;align=center;" parent="WIyWlLk6GJQsqaUBKTNV-1" vertex="1"><mxGeometry x="5859.96" y="1140" width="200" height="180" as="geometry"/></mxCell><mxCell id="cIuGYjMXnb325uZlWKxq-12" value="Имя" style="text;strokeColor=none;fillColor=none;align=center;verticalAlign=middle;spacingLeft=4;spacingRight=4;overflow=hidden;points=[[0,0.5],[1,0.5]];portConstraint=eastwest;rotatable=0;" parent="cIuGYjMXnb325uZlWKxq-2" vertex="1"><mxGeometry y="30" width="200" height="30" as="geometry"/></mxCell><mxCell id="cIuGYjMXnb325uZlWKxq-3" value="Цена(расчётная или фикс)" style="text;strokeColor=none;fillColor=none;align=center;verticalAlign=middle;spacingLeft=4;spacingRight=4;overflow=hidden;points=[[0,0.5],[1,0.5]];portConstraint=eastwest;rotatable=0;" parent="cIuGYjMXnb325uZlWKxq-2" vertex="1"><mxGeometry y="60" width="200" height="30" as="geometry"/></mxCell><mxCell id="cIuGYjMXnb325uZlWKxq-4" value="Расходы" style="text;strokeColor=none;fillColor=none;align=center;verticalAlign=middle;spacingLeft=4;spacingRight=4;overflow=hidden;points=[[0,0.5],[1,0.5]];portConstraint=eastwest;rotatable=0;" parent="cIuGYjMXnb325uZlWKxq-2" vertex="1"><mxGeometry y="90" width="200" height="30" as="geometry"/></mxCell><mxCell id="cIuGYjMXnb325uZlWKxq-5" value="Репутация" style="text;strokeColor=none;fillColor=none;align=center;verticalAlign=middle;spacingLeft=4;spacingRight=4;overflow=hidden;points=[[0,0.5],[1,0.5]];portConstraint=eastwest;rotatable=0;" parent="cIuGYjMXnb325uZlWKxq-2" vertex="1"><mxGeometry y="120" width="200" height="30" as="geometry"/></mxCell><mxCell id="cIuGYjMXnb325uZlWKxq-9" value="Одноразовый/постоянный" style="text;strokeColor=none;fillColor=none;align=center;verticalAlign=middle;spacingLeft=4;spacingRight=4;overflow=hidden;points=[[0,0.5],[1,0.5]];portConstraint=eastwest;rotatable=0;" parent="cIuGYjMXnb325uZlWKxq-2" vertex="1"><mxGeometry y="150" width="200" height="30" as="geometry"/></mxCell><mxCell id="cIuGYjMXnb325uZlWKxq-10" style="edgeStyle=orthogonalEdgeStyle;rounded=0;orthogonalLoop=1;jettySize=auto;html=1;exitX=0;exitY=0.5;exitDx=0;exitDy=0;entryX=0.75;entryY=0;entryDx=0;entryDy=0;align=center;" parent="WIyWlLk6GJQsqaUBKTNV-1" source="U8ynD6HXEm-DrtowHlpf-15" target="cIuGYjMXnb325uZlWKxq-2" edge="1"><mxGeometry relative="1" as="geometry"/></mxCell><mxCell id="cIuGYjMXnb325uZlWKxq-11" style="edgeStyle=orthogonalEdgeStyle;rounded=0;orthogonalLoop=1;jettySize=auto;html=1;exitX=0;exitY=0.5;exitDx=0;exitDy=0;entryX=0;entryY=0.5;entryDx=0;entryDy=0;align=center;" parent="WIyWlLk6GJQsqaUBKTNV-1" source="U8ynD6HXEm-DrtowHlpf-54" target="cIuGYjMXnb325uZlWKxq-3" edge="1"><mxGeometry relative="1" as="geometry"><Array as="points"><mxPoint x="5299.96" y="395"/><mxPoint x="5299.96" y="1215"/></Array></mxGeometry></mxCell><mxCell id="cIuGYjMXnb325uZlWKxq-14" value="Событие" style="swimlane;fontStyle=0;childLayout=stackLayout;horizontal=1;startSize=30;horizontalStack=0;resizeParent=1;resizeParentMax=0;resizeLast=0;collapsible=1;marginBottom=0;align=center;" parent="WIyWlLk6GJQsqaUBKTNV-1" vertex="1"><mxGeometry x="6079.96" y="1140" width="220" height="120" as="geometry"/></mxCell><mxCell id="cIuGYjMXnb325uZlWKxq-15" value="Тип(доп. заказы/негативные/ничего)" style="text;strokeColor=none;fillColor=none;align=center;verticalAlign=middle;spacingLeft=4;spacingRight=4;overflow=hidden;points=[[0,0.5],[1,0.5]];portConstraint=eastwest;rotatable=0;" parent="cIuGYjMXnb325uZlWKxq-14" vertex="1"><mxGeometry y="30" width="220" height="30" as="geometry"/></mxCell><mxCell id="cIuGYjMXnb325uZlWKxq-19" value="Действие" style="text;strokeColor=none;fillColor=none;align=center;verticalAlign=middle;spacingLeft=4;spacingRight=4;overflow=hidden;points=[[0,0.5],[1,0.5]];portConstraint=eastwest;rotatable=0;" parent="cIuGYjMXnb325uZlWKxq-14" vertex="1"><mxGeometry y="60" width="220" height="30" as="geometry"/></mxCell><mxCell id="cIuGYjMXnb325uZlWKxq-20" value="Название" style="text;strokeColor=none;fillColor=none;align=center;verticalAlign=middle;spacingLeft=4;spacingRight=4;overflow=hidden;points=[[0,0.5],[1,0.5]];portConstraint=eastwest;rotatable=0;" parent="cIuGYjMXnb325uZlWKxq-14" vertex="1"><mxGeometry y="90" width="220" height="30" as="geometry"/></mxCell><mxCell id="cIuGYjMXnb325uZlWKxq-21" style="edgeStyle=orthogonalEdgeStyle;rounded=0;orthogonalLoop=1;jettySize=auto;html=1;exitX=1;exitY=0.5;exitDx=0;exitDy=0;entryX=0.5;entryY=0;entryDx=0;entryDy=0;align=center;" parent="WIyWlLk6GJQsqaUBKTNV-1" source="U8ynD6HXEm-DrtowHlpf-16" target="cIuGYjMXnb325uZlWKxq-14" edge="1"><mxGeometry relative="1" as="geometry"><mxPoint x="6229.96" y="844.6956521739132" as="targetPoint"/></mxGeometry></mxCell><mxCell id="cIuGYjMXnb325uZlWKxq-22" style="edgeStyle=orthogonalEdgeStyle;rounded=0;orthogonalLoop=1;jettySize=auto;html=1;entryX=0.5;entryY=0;entryDx=0;entryDy=0;align=center;" parent="WIyWlLk6GJQsqaUBKTNV-1" source="U8ynD6HXEm-DrtowHlpf-19" target="cIuGYjMXnb325uZlWKxq-23" edge="1"><mxGeometry relative="1" as="geometry"><mxPoint x="5570" y="1270" as="targetPoint"/><Array as="points"><mxPoint x="6020" y="905"/><mxPoint x="6020" y="1050"/><mxPoint x="5740" y="1050"/><mxPoint x="5740" y="1250"/><mxPoint x="5585" y="1250"/></Array></mxGeometry></mxCell><mxCell id="cIuGYjMXnb325uZlWKxq-23" value="Заказы" style="swimlane;fontStyle=0;childLayout=stackLayout;horizontal=1;startSize=30;horizontalStack=0;resizeParent=1;resizeParentMax=0;resizeLast=0;collapsible=1;marginBottom=0;align=center;" parent="WIyWlLk6GJQsqaUBKTNV-1" vertex="1"><mxGeometry x="5515" y="1300" width="140" height="90" as="geometry"/></mxCell><mxCell id="cIuGYjMXnb325uZlWKxq-25" value="Каждый тип да/нет" style="text;strokeColor=none;fillColor=none;align=center;verticalAlign=middle;spacingLeft=4;spacingRight=4;overflow=hidden;points=[[0,0.5],[1,0.5]];portConstraint=eastwest;rotatable=0;" parent="cIuGYjMXnb325uZlWKxq-23" vertex="1"><mxGeometry y="30" width="140" height="30" as="geometry"/></mxCell><mxCell id="cIuGYjMXnb325uZlWKxq-26" value="Item 3" style="text;strokeColor=none;fillColor=none;align=center;verticalAlign=middle;spacingLeft=4;spacingRight=4;overflow=hidden;points=[[0,0.5],[1,0.5]];portConstraint=eastwest;rotatable=0;" parent="cIuGYjMXnb325uZlWKxq-23" vertex="1"><mxGeometry y="60" width="140" height="30" as="geometry"/></mxCell></root></mxGraphModel></diagram></mxfile>